<svg width="144" height="20" viewBox="0 0 144 20" fill="none" xmlns="http://www.w3.org/2000/svg">
<path d="M8.242 0.592H11.57L13.676 6.702L15.808 0.592H19.11L15.938 8.99L18.278 14.866L23.504 0.539999H27.404L20.02 19H16.926L13.676 11.252L10.452 19H7.358L0 0.539999H3.848L9.1 14.866L11.388 8.99L8.242 0.592ZM34.227 19.26C32.7536 19.26 31.4796 18.9393 30.405 18.298C29.3476 17.6567 28.5243 16.8073 27.935 15.75C27.3456 14.6753 27.051 13.514 27.051 12.266C27.051 10.9833 27.337 9.80467 27.909 8.73C28.4983 7.638 29.3303 6.77133 30.405 6.13C31.4796 5.47133 32.7623 5.142 34.253 5.142C35.7436 5.142 37.0176 5.47133 38.075 6.13C39.1323 6.77133 39.9383 7.62933 40.493 8.704C41.065 9.76133 41.351 10.9053 41.351 12.136C41.351 12.5867 41.325 12.9767 41.273 13.306H30.743C30.8296 14.3633 31.2196 15.1953 31.913 15.802C32.6236 16.4087 33.4383 16.712 34.357 16.712C35.0503 16.712 35.7003 16.5473 36.307 16.218C36.931 15.8713 37.3556 15.4207 37.581 14.866L40.571 15.698C40.0683 16.738 39.2623 17.596 38.153 18.272C37.0436 18.9307 35.735 19.26 34.227 19.26ZM30.665 11.096H37.789C37.685 10.0733 37.295 9.25 36.619 8.626C35.9603 7.98467 35.1543 7.664 34.201 7.664C33.265 7.664 32.459 7.98467 31.783 8.626C31.1243 9.25 30.7516 10.0733 30.665 11.096ZM52.0014 19.26C50.9614 19.26 50.0341 19.026 49.2194 18.558C48.4048 18.09 47.7634 17.4487 47.2954 16.634V19H44.2534V0.0199995H47.7374V7.768C48.2228 6.95333 48.8554 6.312 49.6354 5.844C50.4328 5.376 51.3601 5.142 52.4174 5.142C53.5961 5.142 54.6274 5.47133 55.5114 6.13C56.4128 6.77133 57.1148 7.62933 57.6174 8.704C58.1201 9.77867 58.3714 10.9573 58.3714 12.24C58.3714 13.5573 58.0941 14.7447 57.5394 15.802C56.9848 16.8593 56.2221 17.7 55.2514 18.324C54.2981 18.948 53.2148 19.26 52.0014 19.26ZM51.0394 16.296C51.7848 16.296 52.4348 16.114 52.9894 15.75C53.5614 15.386 54.0034 14.9007 54.3154 14.294C54.6448 13.67 54.8094 12.994 54.8094 12.266C54.8094 11.5207 54.6534 10.836 54.3414 10.212C54.0468 9.57067 53.6308 9.05933 53.0934 8.678C52.5561 8.29667 51.9408 8.106 51.2474 8.106C50.4848 8.106 49.7828 8.366 49.1414 8.886C48.5174 9.38867 48.0494 10.0127 47.7374 10.758V14.008C47.9628 14.684 48.4048 15.2387 49.0634 15.672C49.7221 16.088 50.3808 16.296 51.0394 16.296ZM72.6448 5.376C72.4888 5.20267 72.1595 4.97733 71.6568 4.7C71.1541 4.40533 70.5475 4.14533 69.8368 3.92C69.1435 3.67733 68.4241 3.556 67.6788 3.556C65.7201 3.556 64.7408 4.24933 64.7408 5.636C64.7408 6.13867 64.8968 6.53733 65.2088 6.832C65.5208 7.12667 65.9888 7.378 66.6128 7.586C67.2368 7.794 68.0168 8.01933 68.9528 8.262C70.1661 8.574 71.2148 8.938 72.0988 9.354C73.0001 9.77 73.6848 10.3247 74.1528 11.018C74.6381 11.694 74.8808 12.5953 74.8808 13.722C74.8808 15.0393 74.5601 16.1053 73.9188 16.92C73.2948 17.7173 72.4628 18.298 71.4228 18.662C70.3828 19.026 69.2561 19.208 68.0428 19.208C66.6561 19.208 65.2781 19 63.9088 18.584C62.5568 18.1507 61.3521 17.5613 60.2948 16.816L61.8808 13.722C62.0368 13.878 62.3141 14.086 62.7128 14.346C63.1115 14.5887 63.5968 14.84 64.1688 15.1C64.7408 15.3427 65.3648 15.5507 66.0408 15.724C66.7168 15.8973 67.4015 15.984 68.0948 15.984C70.0708 15.984 71.0588 15.3513 71.0588 14.086C71.0588 13.5487 70.8595 13.1153 70.4608 12.786C70.0621 12.4567 69.4988 12.1793 68.7708 11.954C68.0601 11.7287 67.2281 11.4773 66.2748 11.2C65.0961 10.8707 64.1168 10.5067 63.3368 10.108C62.5741 9.692 62.0021 9.18067 61.6208 8.574C61.2395 7.95 61.0488 7.16133 61.0488 6.208C61.0488 4.94267 61.3435 3.88533 61.9328 3.036C62.5395 2.16933 63.3541 1.51933 64.3768 1.086C65.3995 0.635333 66.5348 0.409999 67.7828 0.409999C69.0655 0.409999 70.2615 0.617999 71.3708 1.034C72.4801 1.45 73.4335 1.92667 74.2308 2.464L72.6448 5.376ZM85.8934 18.298C85.4254 18.506 84.8448 18.714 84.1514 18.922C83.4754 19.13 82.7734 19.234 82.0454 19.234C81.4041 19.234 80.8148 19.1213 80.2774 18.896C79.7401 18.6707 79.3068 18.3153 78.9774 17.83C78.6654 17.3273 78.5094 16.6773 78.5094 15.88V8.054H76.7154V5.376H78.5094V0.956H81.9934V5.376H84.8534V8.054H81.9934V14.71C81.9934 15.178 82.1148 15.516 82.3574 15.724C82.6174 15.932 82.9294 16.036 83.2934 16.036C83.6574 16.036 84.0128 15.9753 84.3594 15.854C84.7061 15.7327 84.9834 15.6287 85.1914 15.542L85.8934 18.298ZM88.358 13.904V5.376H91.842V13.15C91.842 15.2473 92.596 16.296 94.104 16.296C94.78 16.296 95.43 16.0967 96.054 15.698C96.6953 15.282 97.2153 14.658 97.614 13.826V5.376H101.098V15.1C101.098 15.4813 101.159 15.75 101.28 15.906C101.401 16.0447 101.618 16.1313 101.93 16.166V19C101.583 19.0693 101.289 19.1127 101.046 19.13C100.821 19.1473 100.613 19.156 100.422 19.156C99.798 19.156 99.2866 19.0173 98.888 18.74C98.5066 18.4453 98.2813 18.0467 98.212 17.544L98.134 16.452C97.5273 17.388 96.7473 18.09 95.794 18.558C94.8406 19.026 93.792 19.26 92.648 19.26C91.244 19.26 90.178 18.8093 89.45 17.908C88.722 16.9893 88.358 15.6547 88.358 13.904ZM104.508 12.188C104.508 10.888 104.768 9.70067 105.288 8.626C105.808 7.55133 106.528 6.702 107.446 6.078C108.365 5.454 109.414 5.142 110.592 5.142C111.598 5.142 112.499 5.39333 113.296 5.896C114.111 6.38133 114.744 7.00533 115.194 7.768V0.0199995H118.678V15.1C118.678 15.4813 118.739 15.75 118.86 15.906C118.982 16.0447 119.19 16.1313 119.484 16.166V19C118.86 19.1213 118.366 19.182 118.002 19.182C117.378 19.182 116.858 19.026 116.442 18.714C116.044 18.402 115.818 17.9947 115.766 17.492L115.714 16.634C115.212 17.4833 114.527 18.1333 113.66 18.584C112.811 19.0347 111.918 19.26 110.982 19.26C109.717 19.26 108.599 18.948 107.628 18.324C106.658 17.6827 105.895 16.8333 105.34 15.776C104.786 14.7013 104.508 13.5053 104.508 12.188ZM115.194 14.008V10.758C114.917 9.99533 114.44 9.36267 113.764 8.86C113.088 8.35733 112.395 8.106 111.684 8.106C110.974 8.106 110.35 8.30533 109.812 8.704C109.275 9.08533 108.859 9.59667 108.564 10.238C108.27 10.862 108.122 11.538 108.122 12.266C108.122 13.0113 108.287 13.696 108.616 14.32C108.946 14.9267 109.388 15.412 109.942 15.776C110.514 16.1227 111.164 16.296 111.892 16.296C112.551 16.296 113.201 16.0793 113.842 15.646C114.501 15.2127 114.952 14.6667 115.194 14.008ZM122.878 3.478V0.0199995H126.362V3.478H122.878ZM122.878 19V5.376H126.362V19H122.878ZM136.577 19.26C135.086 19.26 133.804 18.9393 132.729 18.298C131.672 17.6393 130.857 16.7727 130.285 15.698C129.713 14.6233 129.427 13.462 129.427 12.214C129.427 10.9487 129.713 9.77867 130.285 8.704C130.874 7.62933 131.698 6.77133 132.755 6.13C133.83 5.47133 135.104 5.142 136.577 5.142C138.05 5.142 139.316 5.47133 140.373 6.13C141.448 6.77133 142.271 7.62933 142.843 8.704C143.415 9.77867 143.701 10.9487 143.701 12.214C143.701 13.462 143.415 14.6233 142.843 15.698C142.271 16.7727 141.448 17.6393 140.373 18.298C139.316 18.9393 138.05 19.26 136.577 19.26ZM133.015 12.214C133.015 13.0113 133.171 13.722 133.483 14.346C133.795 14.9527 134.22 15.4293 134.757 15.776C135.294 16.1227 135.901 16.296 136.577 16.296C137.236 16.296 137.834 16.1227 138.371 15.776C138.908 15.412 139.333 14.9267 139.645 14.32C139.974 13.696 140.139 12.9853 140.139 12.188C140.139 11.408 139.974 10.7147 139.645 10.108C139.333 9.484 138.908 8.99867 138.371 8.652C137.834 8.288 137.236 8.106 136.577 8.106C135.901 8.106 135.294 8.288 134.757 8.652C134.22 8.99867 133.795 9.484 133.483 10.108C133.171 10.7147 133.015 11.4167 133.015 12.214Z" fill="#2196F3"/>
</svg>
